<?xml version="1.0" standalone="no"?>
<!DOCTYPE svg PUBLIC "-//W3C//DTD SVG 20010904//EN"
 "http://www.w3.org/TR/2001/REC-SVG-20010904/DTD/svg10.dtd">
<svg version="1.0" xmlns="http://www.w3.org/2000/svg"
 width="260.000000pt" height="260.000000pt" viewBox="0 0 260.000000 260.000000"
 preserveAspectRatio="xMidYMid meet">
<metadata>
Created by potrace 1.14, written by Peter Selinger 2001-2017
</metadata>
<g transform="translate(0.000000,260.000000) scale(0.100000,-0.100000)"
fill="#000000" stroke="none">
<path d="M900 1300 l0 -400 130 -1 c72 0 150 0 175 0 25 0 146 0 270 0 l225 1
0 90 c0 86 -1 90 -22 91 -13 0 -132 1 -266 1 l-243 1 3 66 3 66 233 1 c128 1
236 4 240 8 9 10 10 169 1 176 -4 3 -113 5 -243 4 l-237 -1 3 56 3 56 255 0
255 0 3 93 3 92 -396 0 -395 0 0 -400z"/>
</g>
</svg>
